<svg width="301" height="212" viewBox="0 0 301 212" fill="none" xmlns="http://www.w3.org/2000/svg">
<path d="M44.1999 187.929C102.786 219.855 197.737 219.862 256.323 187.929C314.909 155.996 314.909 104.225 256.323 72.2917C197.737 40.3588 102.786 40.3588 44.1999 72.2917C-14.3864 104.225 -14.3797 155.983 44.1999 187.929Z" fill="#F5F5F5"/>
<path d="M75.4263 176.34L116.241 199.909C122.881 203.741 133.649 203.741 140.289 199.909L240.33 142.151C246.97 138.319 246.97 132.104 240.33 128.265L199.515 104.696C192.868 100.865 182.101 100.865 175.461 104.696L75.4263 162.454C68.7798 166.286 68.7798 172.502 75.4263 176.34Z" fill="#EBEBEB"/>
<path d="M235.434 135.202C235.017 132.986 234.262 129.37 231.643 126.508C228.807 123.482 225.464 120.975 221.764 119.1C218.087 117.228 216.08 112.185 223.043 112.366C229.468 112.555 235.576 119.774 236.296 125.915L235.434 135.202Z" fill="#37474F"/>
<path d="M236.006 129.37C235.92 129.37 235.836 129.337 235.772 129.279C235.709 129.22 235.67 129.14 235.663 129.053C234.888 119.215 224.276 114.575 222.195 114.38C222.145 114.384 222.094 114.377 222.047 114.36C222 114.343 221.957 114.316 221.922 114.28C221.886 114.245 221.859 114.202 221.842 114.154C221.825 114.107 221.818 114.057 221.823 114.007C221.827 113.957 221.843 113.908 221.868 113.865C221.893 113.821 221.928 113.784 221.969 113.755C222.01 113.727 222.057 113.708 222.107 113.699C222.156 113.691 222.207 113.693 222.255 113.706C224.558 113.915 235.562 118.582 236.397 129.013C236.401 129.058 236.395 129.103 236.381 129.146C236.367 129.189 236.345 129.229 236.316 129.264C236.286 129.298 236.25 129.326 236.21 129.347C236.17 129.367 236.125 129.38 236.08 129.383L236.006 129.37Z" fill="white"/>
<path d="M241.071 135.201C241.468 133.653 243.05 131.047 245.111 130.319C247.172 129.592 251.677 130.642 253.71 127.39C255.744 124.137 253.939 119.652 254.276 117.814C254.613 115.976 255.906 114.447 258.471 112.683C261.037 110.918 262.269 107.518 260.815 105.895C259.36 104.272 256.741 104.07 253.3 106.44C249.858 108.811 249.744 108.198 246.714 107.922C243.683 107.646 240.983 110.811 240.505 115.215L241.071 135.201Z" fill="#455A64"/>
<path d="M240.842 127.41H240.761C240.717 127.401 240.675 127.382 240.638 127.357C240.601 127.331 240.57 127.297 240.546 127.259C240.522 127.221 240.506 127.178 240.499 127.133C240.492 127.089 240.494 127.043 240.505 126.999C242.707 117.255 253.818 108.245 257.872 106.716C257.962 106.684 258.06 106.689 258.146 106.729C258.232 106.77 258.298 106.843 258.33 106.932C258.362 107.021 258.358 107.12 258.317 107.206C258.277 107.291 258.204 107.358 258.115 107.39C254.162 108.885 243.3 117.666 241.179 127.181C241.154 127.25 241.108 127.31 241.048 127.351C240.987 127.392 240.915 127.413 240.842 127.41V127.41Z" fill="white"/>
<path d="M246.033 117.39C245.964 117.39 245.897 117.369 245.839 117.331C245.782 117.293 245.737 117.238 245.71 117.174C244.619 114.481 244.828 110.912 244.835 110.757C244.86 110.685 244.909 110.623 244.973 110.581C245.037 110.539 245.113 110.519 245.189 110.524C245.266 110.529 245.338 110.56 245.396 110.61C245.453 110.661 245.493 110.729 245.508 110.804C245.508 110.804 245.299 114.38 246.336 116.912C246.354 116.954 246.362 117 246.362 117.045C246.362 117.091 246.352 117.136 246.334 117.178C246.316 117.22 246.289 117.258 246.256 117.29C246.223 117.322 246.184 117.347 246.141 117.363C246.107 117.379 246.071 117.388 246.033 117.39Z" fill="white"/>
<path d="M251.273 124.164C249.751 124.164 245.845 123.956 242.788 121.949C242.711 121.899 242.657 121.82 242.638 121.731C242.619 121.641 242.637 121.548 242.687 121.471C242.737 121.394 242.815 121.34 242.905 121.321C242.995 121.302 243.088 121.32 243.165 121.37C246.768 123.733 251.818 123.464 251.872 123.457C251.918 123.455 251.963 123.461 252.007 123.476C252.05 123.491 252.089 123.515 252.123 123.546C252.157 123.576 252.185 123.614 252.204 123.655C252.223 123.697 252.234 123.742 252.236 123.787C252.238 123.832 252.232 123.878 252.217 123.92C252.203 123.963 252.18 124.002 252.15 124.036C252.12 124.07 252.083 124.097 252.043 124.117C252.002 124.137 251.958 124.148 251.913 124.151C251.832 124.158 251.603 124.164 251.273 124.164Z" fill="white"/>
<path d="M125.446 198.704C124.665 195.896 122.025 193.471 117.655 190.953C113.284 188.434 105.803 185.188 107.554 180.791C109.305 176.394 116.921 179.936 119.769 182.421C123.5 185.68 126.389 190.502 126.47 193.821L125.446 198.704Z" fill="#37474F"/>
<path d="M126.154 195.795C126.074 195.795 125.996 195.768 125.933 195.717C125.871 195.667 125.827 195.597 125.811 195.518C124.194 187.835 115.09 181.895 110.666 180.865C110.576 180.844 110.497 180.789 110.448 180.71C110.399 180.632 110.383 180.538 110.403 180.448C110.425 180.358 110.481 180.281 110.559 180.233C110.637 180.184 110.73 180.167 110.82 180.185C115.4 181.256 124.814 187.411 126.491 195.377C126.5 195.422 126.501 195.468 126.493 195.513C126.485 195.558 126.468 195.601 126.442 195.639C126.417 195.677 126.385 195.71 126.347 195.736C126.309 195.761 126.266 195.779 126.221 195.788L126.154 195.795Z" fill="white"/>
<path d="M131.083 198.704C131.433 195.646 133.972 193.828 137.063 193.101C140.154 192.374 142.902 191.882 143.124 188.488C143.346 185.094 140.242 182.299 142.733 179.384C145.225 176.468 149.023 173.417 148.76 168.299C148.498 163.181 143.743 162.649 141.891 165.875C140.04 169.101 139.656 171.336 137.05 171.027C134.444 170.717 130.268 172.421 129.743 180.212L131.083 198.704Z" fill="#455A64"/>
<path d="M130.619 192.535H130.572C130.481 192.522 130.399 192.473 130.344 192.4C130.288 192.327 130.264 192.236 130.275 192.145C131.306 184.515 136.652 178.003 140.558 173.249C142.235 171.229 143.683 169.444 144.309 168.151C144.328 168.11 144.355 168.073 144.388 168.042C144.421 168.011 144.46 167.987 144.503 167.972C144.545 167.956 144.591 167.949 144.636 167.951C144.681 167.953 144.726 167.964 144.767 167.983C144.85 168.024 144.913 168.095 144.945 168.181C144.976 168.268 144.973 168.363 144.935 168.447C144.262 169.794 142.801 171.612 141.09 173.693C137.238 178.407 131.966 184.798 130.989 192.239C130.977 192.326 130.932 192.406 130.863 192.461C130.794 192.516 130.707 192.543 130.619 192.535V192.535Z" fill="white"/>
<path d="M134.774 181.626C134.702 181.627 134.633 181.605 134.575 181.564C134.517 181.523 134.473 181.464 134.45 181.397C133.835 179.255 133.542 177.033 133.582 174.804C133.585 174.712 133.624 174.625 133.691 174.561C133.757 174.497 133.846 174.461 133.939 174.461C133.984 174.462 134.029 174.472 134.071 174.49C134.113 174.509 134.151 174.535 134.182 174.569C134.213 174.602 134.238 174.641 134.254 174.684C134.27 174.727 134.277 174.772 134.275 174.818C134.24 176.964 134.519 179.103 135.104 181.168C135.119 181.211 135.126 181.256 135.124 181.302C135.121 181.348 135.11 181.392 135.09 181.433C135.069 181.474 135.041 181.51 135.007 181.54C134.972 181.57 134.932 181.592 134.888 181.606C134.851 181.62 134.813 181.626 134.774 181.626V181.626Z" fill="white"/>
<path d="M139.547 188.306C137.004 188.163 134.502 187.604 132.14 186.65C132.097 186.634 132.058 186.61 132.025 186.579C131.992 186.548 131.966 186.511 131.947 186.469C131.929 186.428 131.919 186.383 131.919 186.337C131.918 186.292 131.927 186.247 131.944 186.205C131.96 186.163 131.984 186.124 132.015 186.09C132.046 186.057 132.083 186.03 132.124 186.012C132.166 185.993 132.21 185.982 132.256 185.981C132.301 185.979 132.346 185.987 132.389 186.003C134.675 186.925 137.094 187.475 139.554 187.633C139.6 187.634 139.645 187.644 139.686 187.662C139.728 187.681 139.766 187.707 139.797 187.741C139.829 187.774 139.853 187.813 139.869 187.856C139.885 187.899 139.892 187.944 139.891 187.99C139.885 188.077 139.847 188.158 139.783 188.217C139.719 188.276 139.634 188.308 139.547 188.306V188.306Z" fill="white"/>
<path d="M76.2745 148.232C76.4361 148.164 76.9479 137.356 72.2879 130.986C67.628 124.615 62.005 123.881 58.3013 125.43C54.5975 126.979 55.3518 130.784 59.9107 133.067C64.4697 135.35 70.1465 139.329 71.5 146.602L76.2745 148.232Z" fill="#37474F"/>
<path d="M74.564 145.06C74.4819 145.06 74.4025 145.031 74.3397 144.978C74.2769 144.925 74.2348 144.851 74.2205 144.77C72.4764 133.794 65.9848 128.413 60.4965 127.04C60.4521 127.029 60.4102 127.01 60.3732 126.984C60.3362 126.957 60.3049 126.923 60.2811 126.885C60.2573 126.846 60.2414 126.802 60.2345 126.757C60.2275 126.712 60.2296 126.666 60.2406 126.622C60.2496 126.573 60.2691 126.525 60.298 126.484C60.3268 126.443 60.3642 126.408 60.4077 126.382C60.4512 126.357 60.4997 126.341 60.5499 126.336C60.6001 126.331 60.6508 126.336 60.6985 126.353C66.4023 127.78 73.1431 133.336 74.9411 144.643C74.9487 144.688 74.9473 144.734 74.9368 144.779C74.9263 144.823 74.907 144.865 74.88 144.902C74.853 144.939 74.8189 144.97 74.7797 144.994C74.7404 145.018 74.6969 145.033 74.6515 145.04L74.564 145.06Z" fill="white"/>
<path d="M75.4392 168.299C74.7658 165.451 71.8634 163.586 68.4762 163.262C64.9543 162.946 60.8599 162.589 59.769 159.626C58.6781 156.663 59.769 152.629 59.2774 150.656C58.6781 148.266 57.7623 146.845 53.136 145.39C48.9945 144.09 46.7049 140.131 50.8801 138.461C55.0552 136.791 59.237 137.848 62.0788 139.134C64.9206 140.42 65.0418 141.747 69.0418 141.404C73.0419 141.06 76.0251 143.572 76.2742 145.996L75.4392 168.299Z" fill="#455A64"/>
<path d="M75.4392 158.636C75.3676 158.635 75.2978 158.613 75.239 158.572C75.1801 158.531 75.1349 158.474 75.1092 158.407C71.823 149.249 58.3818 140.959 53.9104 140.434C53.8198 140.422 53.7374 140.375 53.6808 140.303C53.6242 140.232 53.5978 140.141 53.6074 140.05C53.6176 139.958 53.6636 139.874 53.7355 139.816C53.8074 139.758 53.8993 139.731 53.9912 139.74C58.5839 140.286 72.3954 148.784 75.7625 158.171C75.7784 158.214 75.7857 158.26 75.7839 158.305C75.782 158.351 75.771 158.396 75.7516 158.437C75.7321 158.479 75.7046 158.516 75.6706 158.547C75.6366 158.577 75.5969 158.601 75.5537 158.616L75.4392 158.636Z" fill="white"/>
<path d="M72.2874 153.134H72.2133C72.1233 153.113 72.0452 153.058 71.996 152.98C71.9468 152.901 71.9305 152.807 71.9507 152.717C73.0551 147.942 71.9507 144.872 71.9507 144.838C71.9194 144.749 71.9249 144.651 71.966 144.565C72.007 144.48 72.0803 144.415 72.1696 144.383C72.2588 144.352 72.3569 144.358 72.4421 144.399C72.5274 144.44 72.5928 144.513 72.6241 144.602C72.6712 144.73 73.7891 147.888 72.6241 152.872C72.6048 152.946 72.5613 153.013 72.5004 153.06C72.4395 153.108 72.3646 153.134 72.2874 153.134V153.134Z" fill="white"/>
<path d="M74.5639 156.656C74.5075 156.656 74.452 156.643 74.4023 156.616C71.7087 155.154 65.8501 156.198 65.7895 156.205C65.744 156.217 65.6966 156.219 65.6502 156.212C65.6038 156.204 65.5594 156.187 65.5198 156.162C65.4801 156.137 65.446 156.104 65.4197 156.065C65.3933 156.026 65.3752 155.983 65.3664 155.936C65.3576 155.89 65.3584 155.843 65.3687 155.797C65.379 155.751 65.3986 155.708 65.4262 155.67C65.4539 155.632 65.489 155.6 65.5295 155.576C65.57 155.553 65.6149 155.537 65.6615 155.532C65.9107 155.484 71.8164 154.434 74.7323 156.01C74.8111 156.041 74.8759 156.1 74.9146 156.175C74.9533 156.251 74.9633 156.338 74.9427 156.42C74.9221 156.502 74.8724 156.574 74.8027 156.623C74.7331 156.671 74.6482 156.693 74.5639 156.683V156.656Z" fill="white"/>
<path d="M135.184 33.2477C132.605 30.8234 127.939 29.8806 122.08 33.4699C116.221 37.0592 111.588 48.5407 110.134 56.662C108.679 64.7833 107.763 75.3894 110.672 79.8878C113.582 84.3861 124.141 89.1539 124.141 89.1539L125.42 84.7296L135.184 33.2477Z" fill="#FE9800"/>
<path opacity="0.4" d="M135.184 33.2477C132.605 30.8234 127.939 29.8806 122.08 33.4699C116.221 37.0592 111.588 48.5407 110.134 56.662C108.679 64.7833 107.763 75.3894 110.672 79.8878C113.582 84.3861 124.141 89.1539 124.141 89.1539L125.42 84.7296L135.184 33.2477Z" fill="white"/>
<path d="M113.567 78.5412C118.14 84.0159 125.446 84.7567 125.446 84.7567L153.628 68.4401L142.342 61.9282L113.567 78.5412Z" fill="#FE9800"/>
<path opacity="0.2" d="M113.567 78.5412C118.14 84.0159 125.446 84.7567 125.446 84.7567L153.628 68.4401L142.342 61.9282L113.567 78.5412Z" fill="black"/>
<path d="M113.568 78.541C111.716 76.3457 111.339 70.6958 112.342 61.9617C113.433 52.3724 116.982 37.5373 125.44 32.6483C135.359 26.9244 145.434 41.1467 142.363 61.9617L113.568 78.541Z" fill="#FE9800"/>
<path d="M179.588 124.952C184.793 130.851 188.605 132.023 189.999 133.282C191.393 134.542 190.841 137.262 187.73 138.131C184.618 139 181.123 138.488 178.935 136.609C176.746 134.73 175.123 132.164 172.928 130.831C170.733 129.498 169.642 129.181 169.197 127.464C168.753 125.747 169.938 120.393 169.938 120.393L179.588 124.952Z" fill="#263238"/>
<path d="M176.605 115.578C176.329 117.881 175.992 119.908 177.743 122.528C178.308 123.37 178.925 124.178 179.588 124.945C182.632 128.454 185.103 131.188 185.541 131.68C185.979 132.171 183.75 133.956 180.989 133.026C178.228 132.097 175.635 128.312 173.709 126.07C172.854 125.067 172.019 124.158 171.359 123.457C170.471 122.523 169.956 121.297 169.911 120.009L169.783 116.373L176.605 115.578Z" fill="#FFA8A7"/>
<path d="M163.783 134.602C168.988 140.508 172.793 141.673 174.194 142.932C175.595 144.191 175.036 146.919 171.925 147.787C168.813 148.656 165.318 148.144 163.123 146.259C160.928 144.373 159.318 141.821 157.123 140.488C154.928 139.154 153.83 138.838 153.392 137.121C152.955 135.403 154.133 130.05 154.133 130.05L163.783 134.602Z" fill="#263238"/>
<path d="M160.793 125.235C160.524 127.545 160.18 129.565 161.938 132.185C162.502 133.028 163.118 133.836 163.783 134.602C166.827 138.117 169.292 140.851 169.729 141.336C170.167 141.821 167.945 143.612 165.177 142.683C162.409 141.754 159.824 137.969 157.904 135.734C157.049 134.723 156.214 133.821 155.554 133.121C154.668 132.186 154.153 130.96 154.106 129.673L153.972 126.03L160.793 125.235Z" fill="#FFA8A7"/>
<path d="M139.743 0.0622635H143.743C145.305 0.0604939 146.853 0.366569 148.297 0.963002C149.741 1.55944 151.053 2.43454 152.158 3.53831C153.264 4.64208 154.141 5.95288 154.74 7.39583C155.339 8.83878 155.648 10.3856 155.649 11.9479V41.8202H127.851V11.9479C127.852 8.795 129.106 5.77187 131.336 3.54307C133.566 1.31428 136.59 0.062263 139.743 0.0622635Z" fill="#263238"/>
<path d="M157.319 34.7696C152.665 29.8806 150.288 29.3823 147.46 29.3823L152.847 45.2074C152.847 45.2074 161.709 51.066 166.894 54.2984L170.187 47.039C170.187 47.039 161.972 39.6383 157.319 34.7696Z" fill="#FFA8A7"/>
<path d="M125.871 70.4602C124.14 74.1909 121.911 78.1572 124.167 81.9957C126.423 85.8341 144.746 81.9957 144.746 81.9957V70.4602H125.871Z" fill="#263238"/>
<path d="M145.696 29.3824C147.716 29.2141 150.006 29.2747 152.43 33.3555C154.855 37.4364 156.215 39.7259 155.447 45.6654C154.679 51.6048 151.811 56.184 151.602 58.4062C151.393 60.6285 151.925 71.3087 151.925 71.3087C151.925 71.3087 148.383 76.366 139.575 76.6017C136.978 76.6585 134.401 76.137 132.031 75.0747C129.661 74.0125 127.557 72.4363 125.871 70.4602L132.605 58.3793L130.881 33.8269L137.46 29.8875L145.696 29.3824Z" fill="#FE9800"/>
<path d="M145.696 29.3824C147.716 29.2141 150.006 29.2747 152.43 33.3555C154.855 37.4364 156.215 39.7259 155.447 45.6654C154.679 51.6048 151.811 56.184 151.602 58.4062C151.393 60.6285 151.925 71.3087 151.925 71.3087C151.925 71.3087 148.383 76.366 139.575 76.6017C136.978 76.6585 134.401 76.137 132.031 75.0747C129.661 74.0125 127.557 72.4363 125.871 70.4602L132.605 58.3793L130.881 33.8269L137.46 29.8875L145.696 29.3824Z" fill="#E0E0E0"/>
<path d="M137.467 38.0692C136.828 38.0692 136.197 37.9434 135.607 37.699C135.018 37.4546 134.482 37.0963 134.031 36.6447C133.58 36.1932 133.223 35.6571 132.979 35.0673C132.735 34.4775 132.61 33.8454 132.611 33.2072V19.0657H137.467V38.0692Z" fill="#263238"/>
<path d="M151.07 5.67847C152.531 6.54716 154.349 10.2374 154.167 17.9681C154.019 24.5271 151.891 26.1433 150.8 26.6147C149.709 27.0861 147.676 26.7965 145.669 26.4598V30.3992C145.669 30.3992 148.437 33.6114 148.262 35.4094C148.087 37.2073 144.268 37.6451 141.682 35.8807C140.005 34.6727 138.565 33.166 137.433 31.4363V21.921C137.433 21.921 136.086 23.7258 133.878 22.2577C131.669 20.7897 131.581 17.16 132.868 15.8604C134.154 14.5607 136.908 14.9647 137.433 16.7695C137.433 16.7695 140.625 16.8839 144.841 14.554C146.505 13.6699 147.936 12.4051 149.019 10.8627C150.101 9.32032 150.804 7.54398 151.07 5.67847V5.67847Z" fill="#FFA8A7"/>
<path d="M146.847 16.3251C146.857 16.543 146.78 16.7559 146.633 16.9169C146.486 17.0779 146.28 17.1739 146.063 17.1837C145.845 17.1936 145.632 17.1164 145.471 16.9693C145.31 16.8222 145.214 16.6171 145.204 16.3992C145.199 16.2913 145.216 16.1835 145.252 16.082C145.289 15.9805 145.346 15.8872 145.418 15.8074C145.491 15.7277 145.579 15.6631 145.677 15.6173C145.775 15.5716 145.881 15.5455 145.988 15.5406C146.096 15.5358 146.204 15.5522 146.306 15.589C146.407 15.6258 146.501 15.6822 146.58 15.7551C146.66 15.8279 146.725 15.9158 146.77 16.0136C146.816 16.1114 146.842 16.2173 146.847 16.3251V16.3251Z" fill="#263238"/>
<path d="M145.359 13.7999L143.648 14.8571C143.509 14.6228 143.466 14.3437 143.529 14.0786C143.592 13.8135 143.755 13.5832 143.985 13.4362C144.098 13.3679 144.225 13.323 144.356 13.3043C144.487 13.2856 144.621 13.2935 144.749 13.3274C144.877 13.3613 144.997 13.4206 145.102 13.5018C145.206 13.5829 145.294 13.6843 145.359 13.7999V13.7999Z" fill="#263238"/>
<path d="M147.069 21.8806L148.982 22.4934C148.946 22.6203 148.884 22.7386 148.802 22.8415C148.719 22.9443 148.617 23.0297 148.501 23.0924C148.385 23.1551 148.257 23.194 148.126 23.2068C147.995 23.2196 147.862 23.206 147.736 23.1668C147.482 23.0776 147.272 22.8949 147.148 22.6559C147.024 22.4168 146.996 22.1396 147.069 21.8806V21.8806Z" fill="#F28F8F"/>
<path d="M153.628 13.7931L151.958 12.6348C152.028 12.5218 152.12 12.4242 152.228 12.3481C152.337 12.2721 152.46 12.2192 152.59 12.1926C152.72 12.1661 152.854 12.1666 152.984 12.194C153.114 12.2214 153.237 12.2752 153.345 12.352C153.567 12.5109 153.72 12.7486 153.773 13.0164C153.825 13.2843 153.773 13.5621 153.628 13.7931Z" fill="#263238"/>
<path d="M153.225 15.7257C153.227 15.8883 153.182 16.048 153.094 16.1849C153.006 16.3219 152.88 16.43 152.732 16.4957C152.583 16.5615 152.418 16.582 152.258 16.5547C152.097 16.5274 151.949 16.4535 151.83 16.3423C151.711 16.231 151.628 16.0873 151.591 15.929C151.553 15.7708 151.563 15.605 151.619 15.4524C151.675 15.2997 151.775 15.167 151.906 15.0707C152.037 14.9744 152.194 14.9188 152.356 14.9108C152.467 14.9073 152.577 14.9255 152.68 14.9645C152.784 15.0035 152.879 15.0625 152.959 15.1382C153.04 15.2139 153.105 15.3047 153.151 15.4055C153.196 15.5063 153.221 15.6151 153.225 15.7257V15.7257Z" fill="#263238"/>
<path d="M149.332 15.2544L149.467 20.2174L152.08 19.4093L149.332 15.2544Z" fill="#F28F8F"/>
<path d="M145.695 26.4597C144.032 26.2712 140.692 25.2611 139.951 24.1365C140.094 24.8548 140.494 25.4965 141.076 25.9412C142.167 26.985 145.695 27.7392 145.695 27.7392V26.4597Z" fill="#F28F8F"/>
<path d="M128.262 138.461L74.6787 107.524L187.488 42.3926L241.071 73.3289L128.262 138.461Z" fill="#FE9800"/>
<path opacity="0.4" d="M128.262 138.461L74.6787 107.524L187.488 42.3926L241.071 73.3289L128.262 138.461Z" fill="white"/>
<path d="M74.6787 107.524V169.397L77.5003 171.027V128.69L125.447 156.367V198.704L128.262 200.333V138.461L74.6787 107.524Z" fill="#FE9800"/>
<path opacity="0.3" d="M74.6787 107.524V169.397L77.5003 171.027V128.69L125.447 156.367V198.704L128.262 200.333V138.461L74.6787 107.524Z" fill="black"/>
<path d="M77.5 171.027L80.3216 169.397V130.319L77.5 128.69V171.027Z" fill="#FE9800"/>
<path opacity="0.5" d="M77.5 171.027L80.3216 169.397V130.319L77.5 128.69V171.027Z" fill="black"/>
<path d="M128.262 200.333L131.083 198.704V156.367L238.249 94.494V136.831L241.071 135.201V73.3289L128.262 138.461V200.333Z" fill="#FE9800"/>
<path opacity="0.1" d="M128.262 200.333L131.083 198.704V156.367L238.249 94.494V136.831L241.071 135.201V73.3289L128.262 138.461V200.333Z" fill="black"/>
<path d="M131.083 153.114V140.09L164.928 120.548V133.572L131.083 153.114Z" fill="#FE9800"/>
<path opacity="0.3" d="M131.083 153.114V140.09L164.928 120.548V133.572L131.083 153.114Z" fill="black"/>
<path d="M167.743 131.949V118.919L201.589 99.3831V112.407L167.743 131.949Z" fill="#FE9800"/>
<path opacity="0.3" d="M167.743 131.949V118.919L201.589 99.3831V112.407L167.743 131.949Z" fill="black"/>
<path d="M204.41 110.777V97.7534L238.249 78.2112V91.2416L204.41 110.777Z" fill="#FE9800"/>
<path opacity="0.3" d="M204.41 110.777V97.7534L238.249 78.2112V91.2416L204.41 110.777Z" fill="black"/>
<path d="M153.628 127.06V128.104C153.628 128.676 152.281 129.922 150.618 130.878L145.352 133.922C143.689 134.878 142.342 135.195 142.342 134.595V133.558L153.628 127.06Z" fill="#263238"/>
<path d="M190.309 105.895V106.939C190.309 107.511 188.962 108.757 187.299 109.713L182.033 112.757C180.376 113.713 179.029 114.023 179.029 113.43V112.386L190.309 105.895Z" fill="#263238"/>
<path d="M226.969 84.7297V85.7668C226.969 86.3459 225.622 87.585 223.966 88.5479L218.693 91.585C217.036 92.548 215.689 92.8577 215.689 92.2584V91.2146L226.969 84.7297Z" fill="#263238"/>
<path d="M238.248 136.831L235.434 135.202V96.1238L238.248 94.4941V136.831Z" fill="#FE9800"/>
<path opacity="0.3" d="M238.248 136.831L235.434 135.202V96.1238L238.248 94.4941V136.831Z" fill="black"/>
<path d="M159.285 77.5174V77.2817C159.297 77.0732 159.358 76.8703 159.462 76.6892C159.566 76.508 159.71 76.3535 159.884 76.238L195.38 55.7664C195.567 55.6728 195.773 55.624 195.982 55.624C196.192 55.624 196.398 55.6728 196.585 55.7664L203.844 59.955C204.018 60.0706 204.163 60.2251 204.267 60.4062C204.371 60.5874 204.432 60.7902 204.444 60.9988V61.2412C204.43 61.4492 204.368 61.6511 204.263 61.831C204.158 62.011 204.012 62.1641 203.838 62.2782L168.383 82.7498C168.196 82.8434 167.989 82.8922 167.78 82.8922C167.571 82.8922 167.365 82.8434 167.177 82.7498L159.884 78.541C159.713 78.4275 159.57 78.2762 159.466 78.0987C159.362 77.9213 159.3 77.7225 159.285 77.5174V77.5174Z" fill="#FE9800"/>
<path opacity="0.7" d="M159.285 77.5174V77.2817C159.297 77.0732 159.358 76.8703 159.462 76.6892C159.566 76.508 159.71 76.3535 159.884 76.238L195.38 55.7664C195.567 55.6728 195.773 55.624 195.982 55.624C196.192 55.624 196.398 55.6728 196.585 55.7664L203.844 59.955C204.018 60.0706 204.163 60.2251 204.267 60.4062C204.371 60.5874 204.432 60.7902 204.444 60.9988V61.2412C204.43 61.4492 204.368 61.6511 204.263 61.831C204.158 62.011 204.012 62.1641 203.838 62.2782L168.383 82.7498C168.196 82.8434 167.989 82.8922 167.78 82.8922C167.571 82.8922 167.365 82.8434 167.177 82.7498L159.884 78.541C159.713 78.4275 159.57 78.2762 159.466 78.0987C159.362 77.9213 159.3 77.7225 159.285 77.5174V77.5174Z" fill="white"/>
<path d="M159.884 76.9315L167.143 81.1268C167.331 81.2204 167.537 81.2692 167.746 81.2692C167.955 81.2692 168.162 81.2204 168.349 81.1268L203.804 60.6552C203.868 60.6257 203.923 60.5783 203.961 60.5186C203.999 60.4589 204.02 60.3895 204.02 60.3185C204.02 60.2476 203.999 60.1782 203.961 60.1185C203.923 60.0588 203.868 60.0114 203.804 59.9818L196.544 55.7933C196.357 55.6996 196.151 55.6509 195.942 55.6509C195.732 55.6509 195.526 55.6996 195.339 55.7933L159.877 76.2648C159.554 76.4332 159.554 76.7429 159.884 76.9315Z" fill="#FE9800"/>
<path opacity="0.9" d="M159.884 76.9315L167.143 81.1268C167.331 81.2204 167.537 81.2692 167.746 81.2692C167.955 81.2692 168.162 81.2204 168.349 81.1268L203.804 60.6552C203.868 60.6257 203.923 60.5783 203.961 60.5186C203.999 60.4589 204.02 60.3895 204.02 60.3185C204.02 60.2476 203.999 60.1782 203.961 60.1185C203.923 60.0588 203.868 60.0114 203.804 59.9818L196.544 55.7933C196.357 55.6996 196.151 55.6509 195.942 55.6509C195.732 55.6509 195.526 55.6996 195.339 55.7933L159.877 76.2648C159.554 76.4332 159.554 76.7429 159.884 76.9315Z" fill="white"/>
<path d="M114.766 97.0127L136.12 109.35C136.307 109.443 136.513 109.492 136.723 109.492C136.932 109.492 137.138 109.443 137.325 109.35L153.043 100.272C153.11 100.245 153.167 100.198 153.207 100.138C153.247 100.078 153.269 100.008 153.269 99.9353C153.269 99.863 153.247 99.7924 153.207 99.7324C153.167 99.6725 153.11 99.6259 153.043 99.5986L131.682 87.2685C131.497 87.1723 131.291 87.1221 131.083 87.1221C130.874 87.1221 130.669 87.1723 130.484 87.2685L114.766 96.3191C114.429 96.5144 114.429 96.8241 114.766 97.0127Z" fill="#FE9800"/>
<path opacity="0.8" d="M114.766 97.0127L136.12 109.35C136.307 109.443 136.513 109.492 136.723 109.492C136.932 109.492 137.138 109.443 137.325 109.35L153.043 100.272C153.11 100.245 153.167 100.198 153.207 100.138C153.247 100.078 153.269 100.008 153.269 99.9353C153.269 99.863 153.247 99.7924 153.207 99.7324C153.167 99.6725 153.11 99.6259 153.043 99.5986L131.682 87.2685C131.497 87.1723 131.291 87.1221 131.083 87.1221C130.874 87.1221 130.669 87.1723 130.484 87.2685L114.766 96.3191C114.429 96.5144 114.429 96.8241 114.766 97.0127Z" fill="white"/>
<path d="M130.483 87.2483L115.554 95.8611L136.12 107.74C136.307 107.834 136.513 107.882 136.722 107.882C136.931 107.882 137.138 107.834 137.325 107.74L152.281 99.1204L131.709 87.2483C131.52 87.1475 131.31 87.0947 131.096 87.0947C130.882 87.0947 130.672 87.1475 130.483 87.2483V87.2483Z" fill="#FE9800"/>
<path opacity="0.7" d="M130.483 87.2483L115.554 95.8611L136.12 107.74C136.307 107.834 136.513 107.882 136.722 107.882C136.931 107.882 137.138 107.834 137.325 107.74L152.281 99.1204L131.709 87.2483C131.52 87.1475 131.31 87.0947 131.096 87.0947C130.882 87.0947 130.672 87.1475 130.483 87.2483V87.2483Z" fill="white"/>
<path d="M114.766 94.8442L136.12 107.174C136.307 107.268 136.513 107.317 136.722 107.317C136.932 107.317 137.138 107.268 137.325 107.174L153.042 98.1035C153.107 98.0739 153.162 98.0265 153.2 97.9668C153.238 97.9071 153.258 97.8377 153.258 97.7668C153.258 97.6959 153.238 97.6264 153.2 97.5667C153.162 97.5071 153.107 97.4596 153.042 97.4301L131.682 85.0731C131.496 84.9805 131.291 84.9324 131.083 84.9324C130.875 84.9324 130.67 84.9805 130.483 85.0731L114.766 94.1506C114.692 94.1738 114.628 94.22 114.582 94.2824C114.536 94.3447 114.512 94.4201 114.512 94.4974C114.512 94.5747 114.536 94.65 114.582 94.7124C114.628 94.7748 114.692 94.8209 114.766 94.8442Z" fill="#FE9800"/>
<path opacity="0.9" d="M114.766 94.8442L136.12 107.174C136.307 107.268 136.513 107.317 136.722 107.317C136.932 107.317 137.138 107.268 137.325 107.174L153.042 98.1035C153.107 98.0739 153.162 98.0265 153.2 97.9668C153.238 97.9071 153.258 97.8377 153.258 97.7668C153.258 97.6959 153.238 97.6264 153.2 97.5667C153.162 97.5071 153.107 97.4596 153.042 97.4301L131.682 85.0731C131.496 84.9805 131.291 84.9324 131.083 84.9324C130.875 84.9324 130.67 84.9805 130.483 85.0731L114.766 94.1506C114.692 94.1738 114.628 94.22 114.582 94.2824C114.536 94.3447 114.512 94.4201 114.512 94.4974C114.512 94.5747 114.536 94.65 114.582 94.7124C114.628 94.7748 114.692 94.8209 114.766 94.8442Z" fill="white"/>
<path d="M126.605 81.9956C125.898 83.9215 126.982 85.4771 129.036 85.4636C130.115 85.4073 131.157 85.0484 132.041 84.428C132.926 83.8075 133.619 82.9506 134.039 81.9552C134.753 80.0293 133.662 78.4737 131.608 78.4871C130.529 78.5435 129.487 78.9024 128.603 79.5228C127.718 80.1432 127.025 81.0002 126.605 81.9956V81.9956Z" fill="#FE9800"/>
<path opacity="0.1" d="M126.605 81.9956C125.898 83.9215 126.982 85.4771 129.036 85.4636C130.115 85.4073 131.157 85.0484 132.041 84.428C132.926 83.8075 133.619 82.9506 134.039 81.9552C134.753 80.0293 133.662 78.4737 131.608 78.4871C130.529 78.5435 129.487 78.9024 128.603 79.5228C127.718 80.1432 127.025 81.0002 126.605 81.9956V81.9956Z" fill="black"/>
<path d="M128.309 91.1338C126.699 95.4907 129.164 99.0126 133.817 98.9857C138.471 98.9588 143.528 95.3762 145.144 91.0395C146.76 86.7028 144.282 83.1674 139.636 83.1876C134.989 83.2078 129.912 86.7701 128.309 91.1338Z" fill="#455A64"/>
<path d="M132.079 78.541L129.291 80.4872L126.503 82.4333C125.581 86.0899 125.305 91.8004 128.732 96.7163L144.773 85.5108C141.312 80.5612 135.803 78.9047 132.079 78.541Z" fill="#455A64"/>
<path d="M133.689 78.8037C133.689 78.8037 134.187 83.2145 130.881 85.2145C130.881 85.2145 133.992 84.3593 134.921 82.1707C135.851 79.9822 133.689 78.8037 133.689 78.8037Z" fill="#263238"/>
<path d="M134.099 79.3021C132.857 77.5759 131.186 76.204 129.251 75.3223L127.015 76.9115L126.766 77.0866L124.523 78.6758C124.718 80.7853 125.456 82.8084 126.665 84.5479V84.5479C126.944 84.9023 127.304 85.1832 127.716 85.3663C128.128 85.5494 128.579 85.6291 129.029 85.5984C130.165 85.5363 131.261 85.1553 132.191 84.4991C133.122 83.8429 133.848 82.9379 134.288 81.888C134.469 81.4712 134.545 81.0163 134.51 80.5632C134.475 80.11 134.329 79.6724 134.086 79.2886L134.099 79.3021Z" fill="#37474F"/>
<path d="M124.598 77.477C124.463 77.748 124.405 78.0504 124.428 78.3522C124.451 78.654 124.556 78.9438 124.73 79.1909C124.905 79.4381 125.143 79.6334 125.42 79.7561C125.697 79.8787 126.001 79.9243 126.302 79.8878C127.053 79.848 127.778 79.5968 128.393 79.1632C129.007 78.7295 129.487 78.131 129.777 77.4366C129.911 77.1661 129.969 76.8644 129.946 76.5633C129.923 76.2622 129.82 75.9729 129.646 75.726C129.472 75.4791 129.235 75.2837 128.959 75.1604C128.683 75.0372 128.379 74.9907 128.08 75.0258C127.329 75.0698 126.605 75.3225 125.99 75.7556C125.375 76.1886 124.893 76.7848 124.598 77.477Z" fill="#455A64"/>
<path d="M129.19 82.9518C128.91 82.5486 128.54 82.2167 128.108 81.9828C127.677 81.7489 127.196 81.6195 126.706 81.605C126.519 81.5887 126.332 81.6271 126.167 81.7156C126.002 81.8041 125.866 81.9389 125.776 82.1033V82.1033L119.163 98.0698C119.115 98.2245 119.103 98.3884 119.128 98.5486C119.154 98.7087 119.217 98.8606 119.312 98.9923C119.592 99.3968 119.963 99.7295 120.396 99.9635C120.829 100.198 121.311 100.326 121.803 100.339C121.99 100.356 122.177 100.318 122.343 100.23C122.508 100.141 122.643 100.006 122.732 99.8408V99.8408L129.332 83.9282C129.394 83.7671 129.414 83.5925 129.389 83.4214C129.365 83.2503 129.296 83.0886 129.19 82.9518V82.9518Z" fill="#455A64"/>
<path d="M137.063 122.057C137.063 121.83 137.038 121.604 136.989 121.383C136.422 118.8 134.899 116.527 132.726 115.02H123.803C121.628 116.526 120.103 118.799 119.534 121.383C119.487 121.604 119.464 121.83 119.467 122.057C119.464 122.097 119.464 122.137 119.467 122.178C119.547 123.41 120.396 124.629 122.026 125.545C125.467 127.565 131.036 127.565 134.477 125.545C136.106 124.602 136.955 123.383 137.036 122.178C137.047 122.138 137.056 122.098 137.063 122.057V122.057Z" fill="#455A64"/>
<path d="M128.261 120.75C131.564 120.75 134.241 119.204 134.241 117.296C134.241 115.388 131.564 113.841 128.261 113.841C124.959 113.841 122.281 115.388 122.281 117.296C122.281 119.204 124.959 120.75 128.261 120.75Z" fill="#37474F"/>
<path d="M126.848 116.474C126.676 116.531 126.526 116.641 126.42 116.787C126.314 116.934 126.257 117.111 126.257 117.292C126.257 117.473 126.314 117.65 126.42 117.797C126.526 117.944 126.676 118.053 126.848 118.11C127.287 118.333 127.773 118.449 128.265 118.449C128.758 118.449 129.243 118.333 129.683 118.11C129.855 118.053 130.004 117.944 130.11 117.797C130.216 117.65 130.273 117.473 130.273 117.292C130.273 117.111 130.216 116.934 130.11 116.787C130.004 116.641 129.855 116.531 129.683 116.474C129.243 116.251 128.758 116.135 128.265 116.135C127.773 116.135 127.287 116.251 126.848 116.474Z" fill="#455A64"/>
<path d="M118.658 100.865C118.486 100.922 118.337 101.031 118.231 101.178C118.124 101.325 118.067 101.502 118.067 101.683C118.067 101.864 118.124 102.04 118.231 102.187C118.337 102.334 118.486 102.444 118.658 102.501C119.098 102.723 119.583 102.839 120.076 102.839C120.568 102.839 121.054 102.723 121.493 102.501C121.665 102.444 121.815 102.334 121.921 102.187C122.027 102.04 122.084 101.864 122.084 101.683C122.084 101.502 122.027 101.325 121.921 101.178C121.815 101.031 121.665 100.922 121.493 100.865C121.054 100.642 120.568 100.526 120.076 100.526C119.583 100.526 119.098 100.642 118.658 100.865V100.865Z" fill="#FE9800"/>
<path opacity="0.3" d="M118.658 100.865C118.486 100.922 118.337 101.031 118.231 101.178C118.124 101.325 118.067 101.502 118.067 101.683C118.067 101.864 118.124 102.04 118.231 102.187C118.337 102.334 118.486 102.444 118.658 102.501C119.098 102.723 119.583 102.839 120.076 102.839C120.568 102.839 121.054 102.723 121.493 102.501C121.665 102.444 121.815 102.334 121.921 102.187C122.027 102.04 122.084 101.864 122.084 101.683C122.084 101.502 122.027 101.325 121.921 101.178C121.815 101.031 121.665 100.922 121.493 100.865C121.054 100.642 120.568 100.526 120.076 100.526C119.583 100.526 119.098 100.642 118.658 100.865V100.865Z" fill="black"/>
<path d="M122.005 101.356L130.187 116.966L126.342 117.625L118.146 101.996L122.005 101.356Z" fill="#455A64"/>
<path d="M119.116 96.8106C118.863 96.7484 118.597 96.7611 118.35 96.8471C118.104 96.9332 117.888 97.089 117.729 97.2954C117.267 97.8155 116.934 98.4371 116.757 99.1099C116.581 99.7827 116.565 100.488 116.712 101.168C116.753 101.391 116.845 101.602 116.982 101.783C117.119 101.964 117.296 102.111 117.5 102.211V102.211L120.557 103.356L122.079 97.9015L119.116 96.8106Z" fill="#37474F"/>
<path d="M120.747 98.4268C120.283 98.9472 119.949 99.5697 119.771 100.244C119.593 100.918 119.576 101.624 119.723 102.306C120.06 103.538 121.07 103.801 121.959 102.891C122.422 102.372 122.757 101.751 122.935 101.078C123.112 100.405 123.129 99.6998 122.982 99.0194C122.652 97.787 121.642 97.5244 120.747 98.4268Z" fill="#263238"/>
<path d="M105.372 111.955C108.214 109.06 109.877 101.821 107.109 99.5244H93.0216C90.2539 101.821 91.9172 109.053 94.759 111.955L94.8331 112.036L94.9341 112.131C95.0146 112.212 95.1001 112.289 95.19 112.36L95.2573 112.413L95.4728 112.575C95.5893 112.661 95.7107 112.739 95.8364 112.811C97.1485 113.475 98.5983 113.821 100.069 113.821C101.539 113.821 102.989 113.475 104.301 112.811V112.811C104.422 112.743 104.544 112.663 104.672 112.575L104.867 112.42L104.954 112.36L105.197 112.137L105.311 112.023L105.372 111.955Z" fill="#FE9800"/>
<path opacity="0.7" d="M105.372 111.955C108.214 109.06 109.877 101.821 107.109 99.5244H93.0216C90.2539 101.821 91.9172 109.053 94.759 111.955L94.8331 112.036L94.9341 112.131C95.0146 112.212 95.1001 112.289 95.19 112.36L95.2573 112.413L95.4728 112.575C95.5893 112.661 95.7107 112.739 95.8364 112.811C97.1485 113.475 98.5983 113.821 100.069 113.821C101.539 113.821 102.989 113.475 104.301 112.811V112.811C104.422 112.743 104.544 112.663 104.672 112.575L104.867 112.42L104.954 112.36L105.197 112.137L105.311 112.023L105.372 111.955Z" fill="white"/>
<path d="M100.059 106.716C104.607 106.716 108.295 104.588 108.295 101.962C108.295 99.3363 104.607 97.2078 100.059 97.2078C95.5105 97.2078 91.8232 99.3363 91.8232 101.962C91.8232 104.588 95.5105 106.716 100.059 106.716Z" fill="#FE9800"/>
<path opacity="0.9" d="M100.059 106.716C104.607 106.716 108.295 104.588 108.295 101.962C108.295 99.3363 104.607 97.2078 100.059 97.2078C95.5105 97.2078 91.8232 99.3363 91.8232 101.962C91.8232 104.588 95.5105 106.716 100.059 106.716Z" fill="white"/>
<path d="M96.5164 99.9149C94.5635 101.046 94.5635 102.878 96.5164 104.009C97.616 104.564 98.8304 104.853 100.062 104.853C101.293 104.853 102.508 104.564 103.607 104.009C105.56 102.878 105.56 101.046 103.607 99.9149C102.509 99.3571 101.294 99.0664 100.062 99.0664C98.8298 99.0664 97.615 99.3571 96.5164 99.9149V99.9149Z" fill="#FE9800"/>
<path opacity="0.7" d="M96.5164 99.9149C94.5635 101.046 94.5635 102.878 96.5164 104.009C97.616 104.564 98.8304 104.853 100.062 104.853C101.293 104.853 102.508 104.564 103.607 104.009C105.56 102.878 105.56 101.046 103.607 99.9149C102.509 99.3571 101.294 99.0664 100.062 99.0664C98.8298 99.0664 97.615 99.3571 96.5164 99.9149V99.9149Z" fill="white"/>
<path d="M103.608 101.854C102.509 101.3 101.294 101.011 100.063 101.011C98.8314 101.011 97.617 101.3 96.5174 101.854C96.0464 102.115 95.6445 102.484 95.3457 102.932C95.6445 103.379 96.0464 103.749 96.5174 104.009C97.617 104.564 98.8314 104.853 100.063 104.853C101.294 104.853 102.509 104.564 103.608 104.009C104.079 103.749 104.481 103.379 104.78 102.932C104.481 102.484 104.079 102.115 103.608 101.854V101.854Z" fill="#FE9800"/>
<path opacity="0.3" d="M103.608 101.854C102.509 101.3 101.294 101.011 100.063 101.011C98.8314 101.011 97.617 101.3 96.5174 101.854C96.0464 102.115 95.6445 102.484 95.3457 102.932C95.6445 103.379 96.0464 103.749 96.5174 104.009C97.617 104.564 98.8314 104.853 100.063 104.853C101.294 104.853 102.509 104.564 103.608 104.009C104.079 103.749 104.481 103.379 104.78 102.932C104.481 102.484 104.079 102.115 103.608 101.854V101.854Z" fill="black"/>
<path d="M101.339 103.376C103.38 102.101 104.92 100.164 105.703 97.8881C107.002 94.0901 106.235 89.4974 105.07 87.5984C103.494 85.026 99.6823 85.3156 100.807 89.6186C101.931 93.9217 102.632 98.5749 100.847 101.686L101.339 103.376Z" fill="#37474F"/>
<path d="M101.473 102.595C101.432 102.595 101.391 102.581 101.359 102.555C101.342 102.538 101.329 102.519 101.32 102.498C101.311 102.476 101.307 102.453 101.307 102.43C101.307 102.407 101.311 102.384 101.32 102.363C101.329 102.341 101.342 102.322 101.359 102.305C102.497 101.047 103.369 99.5698 103.92 97.9643C104.471 96.3588 104.69 94.6581 104.564 92.9654C104.369 89.8475 103.217 87.5781 102.78 87.2347C102.748 87.2009 102.73 87.1564 102.73 87.1101C102.73 87.0638 102.748 87.0192 102.78 86.9855C102.812 86.9542 102.856 86.9368 102.901 86.9368C102.946 86.9368 102.989 86.9542 103.022 86.9855C103.601 87.4838 104.732 89.9081 104.921 92.9519C105.051 94.6921 104.826 96.4406 104.26 98.0913C103.694 99.742 102.799 101.261 101.628 102.555C101.608 102.574 101.583 102.588 101.556 102.595C101.529 102.602 101.5 102.602 101.473 102.595Z" fill="white"/>
<path d="M98.0521 103.376C97.9433 103.001 97.7046 102.676 97.3787 102.46C96.9764 102.236 96.5522 102.053 96.1127 101.915C95.3518 101.639 94.3821 101.241 94.2811 100.326C94.2572 99.9976 94.2984 99.668 94.4023 99.3559C94.5898 98.9328 94.6347 98.4601 94.5302 98.0091C94.3619 97.6051 93.9309 97.3896 93.5605 97.1472C93.1521 96.9057 92.8042 96.574 92.5437 96.1775C92.324 95.8251 92.2181 95.4136 92.2406 94.999C92.3147 94.1505 93.1295 93.5916 93.1565 92.7498C93.1901 91.5175 90.308 89.8474 91.8433 88.7094C93.8097 87.2212 96.8872 88.9451 97.7693 90.2111C98.6515 91.4771 98.6515 92.0427 100.261 93.1135C101.608 94.0024 103.17 94.1842 103.17 95.935C103.17 97.6859 100.928 97.7667 102.692 99.7533C103.756 100.945 102.019 101.975 101.345 103.39C100.247 103.376 99.1363 103.322 98.0521 103.376Z" fill="#455A64"/>
<path d="M99.8299 103.531C99.8069 103.53 99.7843 103.525 99.7634 103.515C99.7424 103.506 99.7236 103.492 99.708 103.475C99.6924 103.458 99.6802 103.438 99.6722 103.417C99.6643 103.395 99.6606 103.372 99.6615 103.349C100.052 93.1742 94.8736 89.6051 93.8366 89.3223C93.7941 89.3079 93.7589 89.2778 93.738 89.2382C93.7171 89.1986 93.7122 89.1525 93.7243 89.1093C93.7363 89.0662 93.7645 89.0293 93.8029 89.0063C93.8413 88.9833 93.8871 88.9759 93.9308 88.9856C95.6817 89.4637 100.375 93.7601 99.9915 103.363C99.99 103.406 99.9726 103.447 99.9428 103.478C99.913 103.509 99.8728 103.528 99.8299 103.531V103.531Z" fill="white"/>
<path d="M99.009 96.2988C98.9674 96.2989 98.927 96.2846 98.8945 96.2584C97.3929 94.9116 94.4568 94.9655 94.4231 94.9655C94.3778 94.9655 94.3343 94.948 94.3016 94.9166C94.269 94.8852 94.2498 94.8424 94.248 94.7971C94.2479 94.7512 94.2652 94.7068 94.2964 94.6731C94.3277 94.6394 94.3705 94.6187 94.4164 94.6153C94.5443 94.6153 97.5208 94.5816 99.1302 95.9621C99.1556 95.9858 99.1734 96.0165 99.1813 96.0503C99.1892 96.0841 99.1869 96.1195 99.1746 96.152C99.1623 96.1845 99.1407 96.2126 99.1124 96.2327C99.0841 96.2529 99.0505 96.2642 99.0158 96.2652L99.009 96.2988Z" fill="white"/>
<path d="M218.653 68.3456L221.185 37.6113C221.211 37.1139 221.108 36.6181 220.886 36.1721C220.665 35.7261 220.331 35.345 219.919 35.0659C219.462 34.8452 218.961 34.7351 218.454 34.7444C217.948 34.7538 217.45 34.8824 217.003 35.1197L183.332 54.5542C182.887 54.8425 182.509 55.2232 182.225 55.6706C181.94 56.118 181.755 56.6215 181.683 57.1468L179.151 87.8811C179.124 88.3785 179.227 88.8743 179.449 89.3204C179.671 89.7664 180.004 90.1474 180.417 90.4266C180.873 90.6472 181.374 90.7574 181.881 90.748C182.387 90.7386 182.885 90.6101 183.332 90.3727L217.003 70.9382C217.447 70.6493 217.825 70.2684 218.109 69.8211C218.394 69.3738 218.579 68.8706 218.653 68.3456V68.3456Z" fill="#FE9800"/>
<path opacity="0.8" d="M218.653 68.3456L221.185 37.6113C221.211 37.1139 221.108 36.6181 220.886 36.1721C220.665 35.7261 220.331 35.345 219.919 35.0659C219.462 34.8452 218.961 34.7351 218.454 34.7444C217.948 34.7538 217.45 34.8824 217.003 35.1197L183.332 54.5542C182.887 54.8425 182.509 55.2232 182.225 55.6706C181.94 56.118 181.755 56.6215 181.683 57.1468L179.151 87.8811C179.124 88.3785 179.227 88.8743 179.449 89.3204C179.671 89.7664 180.004 90.1474 180.417 90.4266C180.873 90.6472 181.374 90.7574 181.881 90.748C182.387 90.7386 182.885 90.6101 183.332 90.3727L217.003 70.9382C217.447 70.6493 217.825 70.2684 218.109 69.8211C218.394 69.3738 218.579 68.8706 218.653 68.3456V68.3456Z" fill="white"/>
<path d="M218.652 68.3456L221.184 37.6113C221.211 37.1139 221.108 36.6181 220.886 36.1721C220.664 35.7261 220.331 35.345 219.918 35.0659C219.462 34.8452 218.96 34.7351 218.454 34.7444C217.947 34.7538 217.45 34.8824 217.002 35.1197L183.332 54.5542C182.885 54.8315 182.509 55.2098 182.234 55.6586L187.467 58.6755V87.9687L216.982 70.9247C217.429 70.6401 217.81 70.2623 218.098 69.8173C218.387 69.3722 218.575 68.8702 218.652 68.3456Z" fill="#FE9800"/>
<path opacity="0.9" d="M218.652 68.3456L221.184 37.6113C221.211 37.1139 221.108 36.6181 220.886 36.1721C220.664 35.7261 220.331 35.345 219.918 35.0659C219.462 34.8452 218.96 34.7351 218.454 34.7444C217.947 34.7538 217.45 34.8824 217.002 35.1197L183.332 54.5542C182.885 54.8315 182.509 55.2098 182.234 55.6586L187.467 58.6755V87.9687L216.982 70.9247C217.429 70.6401 217.81 70.2623 218.098 69.8173C218.387 69.3722 218.575 68.8702 218.652 68.3456Z" fill="white"/>
<path d="M181.993 89.5109L184.525 58.7766C184.598 58.2515 184.783 57.748 185.066 57.2998C185.349 56.8516 185.725 56.4689 186.168 56.1773L219.838 36.7495C220.673 36.2714 221.279 36.6552 221.185 37.6115L218.653 68.3457C218.58 68.8702 218.396 69.373 218.112 69.8203C217.829 70.2675 217.453 70.6488 217.01 70.9383L183.339 90.3729C182.518 90.851 181.912 90.4671 181.993 89.5109Z" fill="#FE9800"/>
<path opacity="0.7" d="M181.993 89.5109L184.525 58.7766C184.598 58.2515 184.783 57.748 185.066 57.2998C185.349 56.8516 185.725 56.4689 186.168 56.1773L219.838 36.7495C220.673 36.2714 221.279 36.6552 221.185 37.6115L218.653 68.3457C218.58 68.8702 218.396 69.373 218.112 69.8203C217.829 70.2675 217.453 70.6488 217.01 70.9383L183.339 90.3729C182.518 90.851 181.912 90.4671 181.993 89.5109Z" fill="white"/>
<path d="M199.359 64.8506C199.451 64.0244 199.718 63.2273 200.143 62.513C200.568 61.7987 201.141 61.1836 201.824 60.7091C203.056 59.9953 203.945 60.7091 203.844 62.2714C203.752 63.0974 203.484 63.8941 203.059 64.6083C202.634 65.3225 202.061 65.9378 201.379 66.4129C200.093 67.093 199.231 66.4196 199.359 64.8506Z" fill="#FE9800"/>
<path opacity="0.4" d="M199.359 64.8506C199.451 64.0244 199.718 63.2273 200.143 62.513C200.568 61.7987 201.141 61.1836 201.824 60.7091C203.056 59.9953 203.945 60.7091 203.844 62.2714C203.752 63.0974 203.484 63.8941 203.059 64.6083C202.634 65.3225 202.061 65.9378 201.379 66.4129C200.093 67.093 199.231 66.4196 199.359 64.8506Z" fill="white"/>
<path d="M198.767 74.9585L210.046 68.4467L208.639 67.6318L197.359 74.1437L198.767 74.9585Z" fill="#FE9800"/>
<path opacity="0.9" d="M198.767 74.9585L210.046 68.4467L208.639 67.6318L197.359 74.1437L198.767 74.9585Z" fill="white"/>
<path d="M212.262 83.4434L202.161 89.2617C201.954 89.3727 201.721 89.424 201.487 89.4098C201.297 89.4017 201.112 89.3535 200.942 89.2684V89.2684L196.504 86.7095C196.335 86.5931 196.196 86.4398 196.095 86.2612C195.995 86.0827 195.937 85.8836 195.925 85.6791V85.4435C195.925 85.0596 196.194 84.898 196.524 85.0933L199.218 86.6354L199.817 86.9855L199.682 86.3121L197.352 74.1908L198.76 75.0057L210.046 68.4399L212.74 82.4064C212.771 82.6071 212.743 82.8127 212.658 82.9972C212.572 83.1817 212.435 83.337 212.262 83.4434V83.4434Z" fill="#FE9800"/>
<path opacity="0.7" d="M212.262 83.4434L202.161 89.2617C201.954 89.3727 201.721 89.424 201.487 89.4098C201.297 89.4017 201.112 89.3535 200.942 89.2684V89.2684L196.504 86.7095C196.335 86.5931 196.196 86.4398 196.095 86.2612C195.995 86.0827 195.937 85.8836 195.925 85.6791V85.4435C195.925 85.0596 196.194 84.898 196.524 85.0933L199.218 86.6354L199.817 86.9855L199.682 86.3121L197.352 74.1908L198.76 75.0057L210.046 68.4399L212.74 82.4064C212.771 82.6071 212.743 82.8127 212.658 82.9972C212.572 83.1817 212.435 83.337 212.262 83.4434V83.4434Z" fill="white"/>
<path d="M196.134 85.0259L199.568 83.0393L200.269 87.6656L196.134 85.0259Z" fill="#FE9800"/>
<path opacity="0.7" d="M196.134 85.0259L199.568 83.0393L200.269 87.6656L196.134 85.0259Z" fill="white"/>
<path d="M198.747 74.9586L197.34 74.1438L199.67 86.2651C199.751 86.6355 199.535 86.7904 199.205 86.5951L196.511 85.053C196.181 84.8577 195.912 85.053 195.912 85.4032V85.6388C195.924 85.8433 195.982 86.0424 196.083 86.2209C196.183 86.3995 196.323 86.5528 196.491 86.6692L200.929 89.2281C201.099 89.3132 201.285 89.3614 201.474 89.3695L198.747 74.9586Z" fill="#FE9800"/>
<path opacity="0.8" d="M198.747 74.9586L197.34 74.1438L199.67 86.2651C199.751 86.6355 199.535 86.7904 199.205 86.5951L196.511 85.053C196.181 84.8577 195.912 85.053 195.912 85.4032V85.6388C195.924 85.8433 195.982 86.0424 196.083 86.2209C196.183 86.3995 196.323 86.5528 196.491 86.6692L200.929 89.2281C201.099 89.3132 201.285 89.3614 201.474 89.3695L198.747 74.9586Z" fill="white"/>
<path d="M162.383 91.2414C164.45 91.0865 165.117 90.3255 165.454 89.4097C165.791 88.4939 165.912 87.4905 165.11 85.3693C164.309 83.248 159.723 80.4669 154.962 81.4837C150.201 82.5006 149.541 86.1369 149.797 87.1134C150.053 88.0898 152.915 90.568 156.625 90.9922C158.534 91.2414 160.46 91.3247 162.383 91.2414Z" fill="#FE9800"/>
<path opacity="0.7" d="M162.383 91.2414C164.45 91.0865 165.117 90.3255 165.454 89.4097C165.791 88.4939 165.912 87.4905 165.11 85.3693C164.309 83.248 159.723 80.4669 154.962 81.4837C150.201 82.5006 149.541 86.1369 149.797 87.1134C150.053 88.0898 152.915 90.568 156.625 90.9922C158.534 91.2414 160.46 91.3247 162.383 91.2414Z" fill="white"/>
<path d="M159.966 84.6016C160.239 84.3859 160.577 84.2686 160.925 84.2686C161.273 84.2686 161.611 84.3859 161.885 84.6016C162.515 84.9584 163.018 85.502 163.326 86.1572C163.535 86.7027 163.434 87.1875 163.198 87.1875C162.962 87.1875 162.787 86.6892 161.885 85.935C160.982 85.1808 159.764 84.8845 159.966 84.6016Z" fill="#FE9800"/>
<path opacity="0.9" d="M159.966 84.6016C160.239 84.3859 160.577 84.2686 160.925 84.2686C161.273 84.2686 161.611 84.3859 161.885 84.6016C162.515 84.9584 163.018 85.502 163.326 86.1572C163.535 86.7027 163.434 87.1875 163.198 87.1875C162.962 87.1875 162.787 86.6892 161.885 85.935C160.982 85.1808 159.764 84.8845 159.966 84.6016Z" fill="white"/>
<path d="M130.881 33.8403C128.659 35.3353 126.026 37.1064 126.389 42.9381C126.753 48.7698 131.103 64.8574 131.4 66.817C131.696 68.7767 143.521 78.2649 145.696 80.137C148.194 82.3121 149.137 82.77 150.268 84.0158C151.4 85.2616 152.464 88.4401 153.635 89.8206C155.474 91.9553 159.433 92.0024 161.258 91.7533C163.083 91.5041 161.932 89.2886 161.258 87.7128C160.585 86.1371 158.78 83.9889 159.292 83.6185C159.642 83.3694 161.548 83.7061 163.023 84.9653C164.161 85.935 164.295 86.8846 164.935 87.329C166.006 88.0832 166.363 86.7499 165.258 84.6354C164.154 82.5209 162.47 81.0057 160.807 80.4805C161.541 80.5383 162.276 80.3741 162.915 80.0091C163.831 79.4434 164.154 78.1639 163.023 78.5006C162.349 78.6959 161.676 78.5006 160.329 78.5006C156.1 78.5006 154.827 80.036 149.932 75.3087C145.036 70.5814 138.484 64.1504 138.484 64.1504C138.484 64.1504 136.282 50.7496 135.292 44.8169C134.45 39.7057 134.1 36.3589 130.881 33.8403Z" fill="#FFA8A7"/>
<path d="M170.188 47.0189L178.545 29.3218L183.259 31.2679C183.259 31.2679 176.329 52.2378 175.333 54.5139C174.747 55.8607 172.868 57.4971 170.147 56.1705C169.555 55.8809 168.376 55.1873 166.915 54.2782" fill="#FFA8A7"/>
<path d="M181.487 36.5408C182.066 34.8101 183.905 32.965 184.181 32.231C184.426 31.6513 184.508 31.0154 184.417 30.3926L182.268 30.6081L181.487 36.5408Z" fill="#FFA8A7"/>
<path d="M177.056 32.4126C177.406 31.6112 177.467 28.8031 177.056 27.187C176.645 25.5708 177.635 23.5506 177.386 22.4125C177.137 21.2745 177.864 20.931 178.524 21.3418C178.928 21.5983 179.263 21.9508 179.498 22.3679C179.733 22.785 179.861 23.2537 179.871 23.7324C179.905 24.9108 179.979 27.9075 179.501 29.3688C179.023 30.8301 177.056 32.4126 177.056 32.4126Z" fill="#FFA8A7"/>
<path d="M178.168 29.6584C178.296 30.0221 178.78 30.5271 180.349 30.2578L183.238 31.2679L184.417 31.2005C183.787 31.6462 183.016 31.8469 182.249 31.7651C181.481 31.6833 180.77 31.3246 180.248 30.7561C180.248 30.7561 178.127 31.0187 178.168 29.6584Z" fill="#F28F8F"/>
<path d="M186.248 28.4732C184.436 29.8874 184.692 31.7258 186.827 32.5877C188.01 32.9943 189.273 33.1159 190.512 32.9427C191.751 32.7696 192.932 32.3065 193.958 31.5911C195.77 30.1769 195.507 28.3318 193.379 27.4698C192.195 27.0659 190.933 26.9462 189.694 27.1205C188.455 27.2948 187.274 27.7582 186.248 28.4732V28.4732Z" fill="#FE9800"/>
<path opacity="0.7" d="M186.248 28.4732C184.436 29.8874 184.692 31.7258 186.827 32.5877C188.01 32.9943 189.273 33.1159 190.512 32.9427C191.751 32.7696 192.932 32.3065 193.958 31.5911C195.77 30.1769 195.507 28.3318 193.379 27.4698C192.195 27.0659 190.933 26.9462 189.694 27.1205C188.455 27.2948 187.274 27.7582 186.248 28.4732V28.4732Z" fill="white"/>
<path d="M195.218 18.1499L188.571 19.0792L181.911 20.0085C182.059 24.3183 183.521 29.1466 185.426 31.6046L195.016 30.2577C196.181 27.3621 196.255 22.3318 195.218 18.1499Z" fill="#FE9800"/>
<path opacity="0.7" d="M195.218 18.1499L188.571 19.0792L181.911 20.0085C182.059 24.3183 183.521 29.1466 185.426 31.6046L195.016 30.2577C196.181 27.3621 196.255 22.3318 195.218 18.1499Z" fill="white"/>
<path d="M183.622 17.995C181.185 19.4833 181.441 21.3149 184.195 22.0759C187.397 22.777 190.745 22.2988 193.622 20.7291C196.06 19.2341 195.804 17.4092 193.05 16.6415C189.847 15.9431 186.5 16.4237 183.622 17.995V17.995Z" fill="#FE9800"/>
<path opacity="0.9" d="M183.622 17.995C181.185 19.4833 181.441 21.3149 184.195 22.0759C187.397 22.777 190.745 22.2988 193.622 20.7291C196.06 19.2341 195.804 17.4092 193.05 16.6415C189.847 15.9431 186.5 16.4237 183.622 17.995V17.995Z" fill="white"/>
<path d="M184.605 18.6079C182.585 19.6382 182.78 20.8302 184.975 21.3016C187.555 21.692 190.192 21.3223 192.565 20.2376C194.551 19.2073 194.389 18.0153 192.187 17.544C189.61 17.154 186.975 17.5238 184.605 18.6079Z" fill="#FE9800"/>
<path opacity="0.4" d="M184.605 18.6079C182.585 19.6382 182.78 20.8302 184.975 21.3016C187.555 21.692 190.192 21.3223 192.565 20.2376C194.551 19.2073 194.389 18.0153 192.187 17.544C189.61 17.154 186.975 17.5238 184.605 18.6079Z" fill="white"/>
<path d="M184.854 20.1837C184.498 20.3589 184.169 20.5858 183.878 20.8571C184.232 21.0384 184.611 21.1655 185.003 21.2342C187.582 21.6247 190.219 21.255 192.592 20.1702C192.95 19.9978 193.28 19.7706 193.568 19.4968C193.214 19.3156 192.835 19.1884 192.444 19.1197C189.864 18.7292 187.227 19.099 184.854 20.1837V20.1837Z" fill="#FE9800"/>
<path opacity="0.3" d="M184.854 20.1837C184.498 20.3589 184.169 20.5858 183.878 20.8571C184.232 21.0384 184.611 21.1655 185.003 21.2342C187.582 21.6247 190.219 21.255 192.592 20.1702C192.95 19.9978 193.28 19.7706 193.568 19.4968C193.214 19.3156 192.835 19.1884 192.444 19.1197C189.864 18.7292 187.227 19.099 184.854 20.1837V20.1837Z" fill="black"/>
<path d="M183.44 31.4025C182.882 31.4854 182.312 31.4579 181.764 31.3217C181.01 31.1197 180.296 30.3924 179.589 29.0927C178.996 28.0018 177.979 25.5775 178.41 24.2375C178.962 22.5337 180.935 22.2913 182.249 22.1297L182.7 22.0691L182.989 24.1365L182.504 24.1971C181.764 24.2846 180.531 24.4395 180.39 24.8705C180.201 25.7055 181.616 28.958 182.336 29.3149C182.986 29.4051 183.648 29.2972 184.235 29.0052L185.178 30.8638C184.631 31.1332 184.044 31.315 183.44 31.4025V31.4025Z" fill="#FE9800"/>
<path opacity="0.7" d="M183.44 31.4025C182.882 31.4854 182.312 31.4579 181.764 31.3217C181.01 31.1197 180.296 30.3924 179.589 29.0927C178.996 28.0018 177.979 25.5775 178.41 24.2375C178.962 22.5337 180.935 22.2913 182.249 22.1297L182.7 22.0691L182.989 24.1365L182.504 24.1971C181.764 24.2846 180.531 24.4395 180.39 24.8705C180.201 25.7055 181.616 28.958 182.336 29.3149C182.986 29.4051 183.648 29.2972 184.235 29.0052L185.178 30.8638C184.631 31.1332 184.044 31.315 183.44 31.4025V31.4025Z" fill="white"/>
<path d="M180.969 24.8772C179.683 24.8772 175.905 26.3789 175.824 27.7392C175.743 29.0995 178.309 28.9984 178.309 28.9984C178.188 29.2005 178.142 29.4388 178.179 29.6715C178.216 29.9042 178.333 30.1165 178.511 30.2712C179.151 30.8234 183.999 29.1399 183.999 29.1399C183.83 28.5842 183.573 28.0591 183.238 27.5843C182.997 27.2773 182.643 27.0787 182.255 27.0321C182.255 27.0321 182.881 24.8772 180.969 24.8772Z" fill="#FFA8A7"/>
<path d="M84.7457 91.1945L79.1025 87.9419L84.7457 86.3123V91.1945Z" fill="#E0E0E0"/>
<g style="mix-blend-mode:multiply" opacity="0.5">
<g style="mix-blend-mode:multiply" opacity="0.5">
<path d="M84.7457 86.3125V91.1947L79.1025 87.9422" fill="#E0E0E0"/>
</g>
</g>
<path d="M50.8999 105.854V111.04L19.8828 93.1339V87.9419L50.8999 105.854Z" fill="#E0E0E0"/>
<g style="mix-blend-mode:multiply" opacity="0.5">
<g style="mix-blend-mode:multiply" opacity="0.5">
<path d="M50.9009 105.854V111.04L19.8838 93.1339V87.9419L50.9009 105.854Z" fill="#E0E0E0"/>
</g>
</g>
<path d="M17.0615 47.2344L48.0854 65.147V107.477L17.0615 89.5714V47.2344Z" fill="#E0E0E0"/>
<path d="M48.085 65.1471L90.3816 40.7227V83.053L48.085 107.477V65.1471Z" fill="#EBEBEB"/>
<path d="M90.382 40.7227L59.3649 22.8101L17.0615 47.2345L48.0854 65.1471L90.382 40.7227Z" fill="#F5F5F5"/>
<path d="M50.9004 66.7769L87.5674 45.605V55.3761L50.9004 76.5413V66.7769Z" fill="#E0E0E0"/>
<g style="mix-blend-mode:multiply" opacity="0.5">
<g style="mix-blend-mode:multiply" opacity="0.5">
<path d="M65.0009 59.4434C65.0009 59.8945 66.3477 59.4838 68.011 58.5275L73.277 55.4837C74.9403 54.5275 76.2804 53.3827 76.2804 52.9315V52.1167L64.9941 58.6353L65.0009 59.4434Z" fill="#E0E0E0"/>
</g>
</g>
<path d="M50.9004 79.8004L87.5674 58.6353V68.3996L50.9004 89.5715V79.8004Z" fill="#E0E0E0"/>
<g style="mix-blend-mode:multiply" opacity="0.5">
<g style="mix-blend-mode:multiply" opacity="0.5">
<path d="M65.0009 72.4805C65.0009 72.9317 66.3477 72.4805 68.011 71.5579L73.277 68.5141C74.9403 67.5579 76.2804 66.4131 76.2804 65.9686V65.1538L64.9941 71.6656L65.0009 72.4805Z" fill="#E0E0E0"/>
</g>
</g>
<path d="M50.9004 92.8241L87.5674 71.6589V81.4301L50.9004 102.595V92.8241Z" fill="#E0E0E0"/>
<g style="mix-blend-mode:multiply" opacity="0.5">
<g style="mix-blend-mode:multiply" opacity="0.5">
<path d="M65.0009 85.4976C65.0009 85.9487 66.3477 85.538 68.011 84.575L73.277 81.5379C74.9403 80.575 76.2804 79.4369 76.2804 78.9857V78.1709L64.9941 84.6827L65.0009 85.4976Z" fill="#E0E0E0"/>
</g>
</g>
<path d="M50.9004 111.04L53.722 109.417V104.225L50.9004 105.854V111.04Z" fill="#E0E0E0"/>
<path d="M84.7451 91.1945L87.5667 89.5716V84.6826L84.7451 86.3123V91.1945Z" fill="#E0E0E0"/>
<path d="M35.196 48.9989C38.0378 46.0965 39.7078 38.8978 36.9334 36.561H22.839C20.0713 38.8641 21.7346 46.0965 24.5764 48.9921L24.6505 49.0729L24.7515 49.1672C24.832 49.2487 24.9175 49.3251 25.0074 49.3962L25.0747 49.45L25.2902 49.6116C25.4067 49.6973 25.5281 49.776 25.6538 49.8473C26.9659 50.5113 28.4157 50.8572 29.8862 50.8572C31.3567 50.8572 32.8065 50.5113 34.1185 49.8473V49.8473C34.2465 49.776 34.3701 49.6973 34.4889 49.6116L34.6842 49.4635L34.7717 49.3962L35.0209 49.1739L35.1287 49.0662L35.196 48.9989Z" fill="#EBEBEB"/>
<path d="M24.0646 35.6385C20.8457 37.4971 20.8457 40.5072 24.0646 42.3726C27.2834 44.2379 32.4956 44.2312 35.7077 42.3726C38.9199 40.514 38.9266 37.5106 35.7077 35.6385C32.4889 33.7664 27.2767 33.7799 24.0646 35.6385Z" fill="#F5F5F5"/>
<path d="M26.3543 36.9515C24.4014 38.0829 24.4014 39.9145 26.3543 41.0459C27.4529 41.6036 28.6677 41.8943 29.8998 41.8943C31.1319 41.8943 32.3466 41.6036 33.4453 41.0459C35.3982 39.9145 35.3982 38.0829 33.4453 36.9515C32.3457 36.3969 31.1313 36.1079 29.8998 36.1079C28.6682 36.1079 27.4539 36.3969 26.3543 36.9515V36.9515Z" fill="#E0E0E0"/>
<path d="M33.4316 38.8978C32.333 38.34 31.1183 38.0493 29.8862 38.0493C28.654 38.0493 27.4393 38.34 26.3407 38.8978C25.868 39.1529 25.4655 39.5207 25.1689 39.9685C25.4651 40.4185 25.8675 40.7885 26.3407 41.046C27.4393 41.6038 28.654 41.8945 29.8862 41.8945C31.1183 41.8945 32.333 41.6038 33.4316 41.046C33.9048 40.7885 34.3072 40.4185 34.6034 39.9685C34.3068 39.5207 33.9043 39.1529 33.4316 38.8978V38.8978Z" fill="#E0E0E0"/>
<g style="mix-blend-mode:multiply" opacity="0.5">
<g style="mix-blend-mode:multiply" opacity="0.5">
<path d="M33.4316 38.8978C32.333 38.34 31.1183 38.0493 29.8862 38.0493C28.654 38.0493 27.4393 38.34 26.3407 38.8978C25.868 39.1529 25.4655 39.5207 25.1689 39.9685C25.4651 40.4185 25.8675 40.7885 26.3407 41.046C27.4393 41.6038 28.654 41.8945 29.8862 41.8945C31.1183 41.8945 32.333 41.6038 33.4316 41.046C33.9048 40.7885 34.3072 40.4185 34.6034 39.9685C34.3068 39.5207 33.9043 39.1529 33.4316 38.8978V38.8978Z" fill="#E0E0E0"/>
</g>
</g>
<path d="M26.7785 39.9684C25.7756 38.9518 24.9127 37.8058 24.2129 36.561C23.0277 34.4734 22.8122 31.6653 23.425 31.3219C24.0378 30.9784 26.5227 33.7731 26.5227 33.7731C26.2962 32.5954 26.2081 31.3954 26.26 30.1973C26.3678 28.3319 26.819 26.6417 27.3577 26.2982C27.8964 25.9548 29.0816 28.3185 29.5934 30.0154C30.1052 31.7124 30.3947 33.1199 30.3947 33.1199C30.6009 31.79 30.9071 30.4777 31.3106 29.1939C31.9301 27.4296 32.4958 27.0255 32.9335 27.1737C33.3712 27.3218 33.6608 28.177 33.7887 30.5407C33.8334 31.6642 33.7974 32.7894 33.681 33.9077C33.681 33.9077 34.5631 32.938 35.5328 32.002C36.6035 30.9717 37.0615 30.8303 37.3712 31.0256C37.681 31.2208 37.7618 32.8235 36.1052 35.8202C35.2794 37.3467 34.2232 38.7368 32.9739 39.9415C32.9739 39.9415 30.6978 41.4499 26.7785 39.9684Z" fill="#EBEBEB"/>
<path d="M63.6209 52.4871L80.4561 42.7227C80.786 42.5342 80.786 42.2244 80.4561 42.0493L57.3313 28.8775C57.1442 28.7839 56.9378 28.7351 56.7286 28.7351C56.5194 28.7351 56.313 28.7839 56.1259 28.8775L39.4389 38.5274C39.1089 38.7227 39.1089 39.0325 39.4389 39.2008L62.4155 52.4669C62.601 52.5637 62.8066 52.6159 63.0158 52.6194C63.2251 52.6229 63.4322 52.5776 63.6209 52.4871Z" fill="#E0E0E0"/>
<g style="mix-blend-mode:multiply" opacity="0.5">
<g style="mix-blend-mode:multiply" opacity="0.5">
<path d="M63.6209 52.4871L80.4561 42.7227C80.786 42.5342 80.786 42.2244 80.4561 42.0493L57.3313 28.8775C57.1442 28.7839 56.9378 28.7351 56.7286 28.7351C56.5194 28.7351 56.313 28.7839 56.1259 28.8775L39.4389 38.5274C39.1089 38.7227 39.1089 39.0325 39.4389 39.2008L62.4155 52.4669C62.601 52.5637 62.8066 52.6159 63.0158 52.6194C63.2251 52.6229 63.4322 52.5776 63.6209 52.4871Z" fill="#E0E0E0"/>
</g>
</g>
<path d="M39.425 38.5071L58.4016 26.4396C58.5855 26.3434 58.79 26.2932 58.9975 26.2932C59.2051 26.2932 59.4096 26.3434 59.5935 26.4396L66.4286 30.3858C66.5885 30.4827 66.7062 30.6361 66.7586 30.8156C66.8109 30.9951 66.7941 31.1878 66.7114 31.3555L66.4353 31.8942C66.3526 32.0619 66.3358 32.2545 66.3881 32.4341C66.4405 32.6136 66.5582 32.7669 66.7181 32.8639L80.4893 40.8303C80.5624 40.859 80.6252 40.909 80.6694 40.9739C80.7137 41.0387 80.7373 41.1154 80.7373 41.1939C80.7373 41.2725 80.7137 41.3492 80.6694 41.414C80.6252 41.4789 80.5624 41.5289 80.4893 41.5576L63.5868 52.4398C63.4052 52.5394 63.2013 52.5917 62.9942 52.5917C62.787 52.5917 62.5832 52.5394 62.4016 52.4398L39.425 39.1737C39.3662 39.1402 39.3173 39.0917 39.2833 39.0331C39.2493 38.9746 39.2314 38.9081 39.2314 38.8404C39.2314 38.7727 39.2493 38.7062 39.2833 38.6477C39.3173 38.5891 39.3662 38.5406 39.425 38.5071V38.5071Z" fill="#EBEBEB"/>
<path d="M277.98 67.147C282.869 62.157 285.744 41.8471 280.97 37.8875H256.727C251.953 41.8403 254.828 62.1301 259.717 67.1402L259.845 67.2749L260.014 67.4433C260.155 67.5779 260.303 67.7059 260.458 67.8338L260.572 67.9281C260.694 68.0224 260.815 68.1167 260.943 68.2042C261.145 68.3522 261.356 68.4872 261.576 68.6082C265.616 70.9315 272.121 70.9315 276.148 68.6082C276.368 68.4872 276.579 68.3522 276.781 68.2042L277.125 67.9416L277.273 67.8271C277.421 67.7059 277.563 67.5779 277.697 67.45L277.892 67.2614L277.98 67.147Z" fill="#37474F"/>
<path d="M258.808 36.2913C253.266 39.49 253.266 44.6753 258.808 47.8739C264.35 51.0726 273.327 51.0659 278.862 47.8739C284.397 44.682 284.397 39.49 278.862 36.2913C273.327 33.0927 264.343 33.0927 258.808 36.2913Z" fill="#455A64"/>
<path d="M261.469 37.8268C257.428 40.177 257.428 43.9817 261.469 46.3319C265.509 48.6821 272.136 48.6821 276.196 46.3319C280.257 43.9817 280.237 40.177 276.196 37.8268C272.156 35.4766 265.536 35.4833 261.469 37.8268Z" fill="#37474F"/>
<path d="M276.189 41.8674C272.148 39.5172 265.529 39.5172 261.461 41.8674C260.478 42.3997 259.641 43.1651 259.023 44.0964C259.641 45.0298 260.478 45.7974 261.461 46.3321C265.502 48.6823 272.121 48.6823 276.189 46.3321C277.174 45.8011 278.012 45.0327 278.626 44.0964C278.011 43.1625 277.174 42.3965 276.189 41.8674V41.8674Z" fill="#E0E0E0"/>
<g style="mix-blend-mode:multiply">
<g style="mix-blend-mode:multiply">
<path d="M276.189 41.8671C272.148 39.5169 265.529 39.5169 261.461 41.8671C260.478 42.3994 259.641 43.1648 259.023 44.0961C259.641 45.0295 260.478 45.7972 261.461 46.3318C265.502 48.682 272.121 48.682 276.189 46.3318C277.174 45.8008 278.012 45.0324 278.626 44.0961C278.011 43.1623 277.174 42.3962 276.189 41.8671V41.8671Z" fill="#263238"/>
</g>
</g>
<path d="M273.374 44.1098C274.552 40.5407 276.195 34.0087 282.303 29.113C288.566 24.0759 294.741 20.0894 292.613 16.7829C290.674 13.7795 284.842 13.3351 278.175 18.4799C271.704 23.4631 268.781 34.8976 269.353 42.4801L273.374 44.1098Z" fill="#FE9800"/>
<g opacity="0.1">
<path opacity="0.1" d="M273.374 44.1098C274.552 40.5407 276.195 34.0087 282.303 29.113C288.566 24.0759 294.741 20.0894 292.613 16.7829C290.674 13.7795 284.842 13.3351 278.175 18.4799C271.704 23.4631 268.781 34.8976 269.353 42.4801L273.374 44.1098Z" fill="black"/>
</g>
<path d="M270.398 43.2544H270.351C270.306 43.2495 270.262 43.2355 270.223 43.2134C270.183 43.1912 270.149 43.1613 270.121 43.1255C270.093 43.0896 270.073 43.0486 270.062 43.0048C270.05 42.961 270.048 42.9154 270.054 42.8706C272.371 24.9512 283.523 17.0185 288.97 16.7559C289.016 16.7512 289.062 16.756 289.105 16.7701C289.149 16.7841 289.189 16.8071 289.223 16.8375C289.257 16.8679 289.285 16.9051 289.304 16.9467C289.323 16.9883 289.333 17.0334 289.334 17.0791C289.338 17.1716 289.305 17.2619 289.244 17.331C289.182 17.4001 289.096 17.4426 289.004 17.4495C284.964 17.638 273.192 24.0489 270.741 42.9581C270.73 43.0408 270.689 43.1165 270.625 43.171C270.562 43.2256 270.481 43.2552 270.398 43.2544V43.2544Z" fill="white"/>
<path d="M264.465 44.9447C264.306 43.9397 263.909 42.9873 263.307 42.1672C262.705 41.347 261.915 40.6831 261.004 40.2309C259.017 39.1535 256.6 40.2309 254.27 36.9783C251.94 33.7258 253.98 31.086 253.596 29.5103C253.212 27.9345 252.808 26.9042 250.155 25.7729C247.502 24.6415 246.788 22.9782 247.704 19.2476C248.62 15.5169 248.573 14.3856 246.303 12.7492C244.034 11.1128 243.926 9.03872 246.303 7.67171C248.68 6.30469 252.909 6.32489 256.256 9.29461C259.603 12.2643 260.027 13.5438 263.711 13.9007C267.394 14.2576 269.502 14.4058 270.337 16.5943C271.172 18.7829 270.741 20.4799 270.337 22.5271C270.147 23.4615 270.275 24.4326 270.699 25.2865C271.124 26.1404 271.821 26.8282 272.681 27.2409C274.29 28.0018 276.97 28.5877 277.967 31.5238C278.963 34.4598 276.755 40.4464 273.926 44.1232C273.893 44.1097 273.219 46.2579 264.465 44.9447Z" fill="#FE9800"/>
<path d="M270.627 45.2882C270.581 45.2882 270.536 45.2791 270.494 45.2614C270.452 45.2438 270.414 45.2179 270.382 45.1852C270.35 45.1526 270.324 45.114 270.308 45.0715C270.291 45.0291 270.282 44.9837 270.283 44.938C270.174 39.193 268.893 33.5308 266.519 28.2982C262.728 20.1163 250.613 10.4529 249.872 10.0085C249.831 9.99507 249.792 9.97312 249.759 9.94401C249.726 9.91489 249.7 9.87924 249.681 9.83934C249.663 9.79943 249.653 9.75614 249.652 9.71222C249.652 9.66829 249.66 9.62469 249.677 9.5842C249.713 9.49658 249.781 9.4261 249.868 9.38727C249.954 9.34844 250.052 9.34421 250.142 9.37545C250.559 9.51013 263.159 19.389 267.145 28.0019C269.56 33.333 270.864 39.1001 270.977 44.9515C270.977 44.9969 270.968 45.0418 270.95 45.0835C270.932 45.1253 270.906 45.163 270.874 45.1945C270.841 45.2259 270.802 45.2505 270.76 45.2666C270.717 45.2827 270.672 45.29 270.627 45.2882V45.2882Z" fill="white"/>
<path d="M262.613 22.0759C262.557 22.0762 262.502 22.0623 262.452 22.0355C259.913 20.6415 253.846 21.6315 253.785 21.6449C253.694 21.6568 253.603 21.6333 253.529 21.5795C253.455 21.5256 253.404 21.4454 253.388 21.3554C253.38 21.3107 253.381 21.2649 253.391 21.2207C253.401 21.1765 253.42 21.1347 253.446 21.0978C253.473 21.0609 253.506 21.0295 253.545 21.0055C253.583 20.9815 253.626 20.9654 253.671 20.9581C253.927 20.9176 260.041 19.921 262.782 21.4294C262.822 21.4512 262.857 21.4808 262.886 21.5164C262.914 21.552 262.936 21.593 262.948 21.6369C262.961 21.6808 262.964 21.7267 262.959 21.772C262.953 21.8173 262.939 21.8611 262.917 21.9008C262.887 21.955 262.843 21.9999 262.79 22.0308C262.736 22.0617 262.675 22.0773 262.613 22.0759Z" fill="white"/>
<path d="M270.001 38.8101C269.916 38.8196 269.831 38.7981 269.762 38.7497C269.692 38.7013 269.642 38.6293 269.622 38.547C269.601 38.4648 269.611 38.3778 269.65 38.3023C269.689 38.2269 269.753 38.168 269.832 38.1367C272.687 36.5879 274.869 32.2107 274.889 32.1703C274.906 32.1237 274.932 32.0811 274.966 32.0452C275 32.0093 275.041 31.981 275.086 31.9621C275.132 31.9433 275.181 31.9343 275.23 31.9357C275.28 31.9371 275.328 31.949 275.373 31.9705C275.417 31.992 275.456 32.0227 275.488 32.0605C275.52 32.0983 275.543 32.1424 275.557 32.1898C275.57 32.2373 275.574 32.2871 275.567 32.336C275.56 32.3849 275.542 32.4317 275.516 32.4733C275.421 32.6619 273.206 37.0929 270.162 38.7495C270.114 38.7834 270.059 38.8043 270.001 38.8101Z" fill="white"/>
</svg>
