<svg width="151" height="47" viewBox="0 0 151 47" fill="none" xmlns="http://www.w3.org/2000/svg">
<path d="M17.876 2.004C23.4973 2.004 26.308 4.996 26.308 10.98V37.024C26.308 43.008 23.4973 46 17.876 46H0.4V2.004H17.876ZM16.788 38.112V9.824C16.788 9.46133 16.652 9.144 16.38 8.872C16.1533 8.6 15.8587 8.464 15.496 8.464H9.92V39.472H15.496C15.8587 39.472 16.1533 39.336 16.38 39.064C16.652 38.792 16.788 38.4747 16.788 38.112ZM48.4999 12.816H57.6119V46H49.3159V44.3C47.9106 45.8867 45.7799 46.68 42.9239 46.68H41.4959C35.8746 46.68 33.0639 43.688 33.0639 37.704V12.816H42.1759V38.792C42.1759 39.1547 42.2892 39.472 42.5159 39.744C42.7879 40.016 43.1052 40.152 43.4679 40.152H47.2079C47.5706 40.152 47.8652 40.016 48.0919 39.744C48.3639 39.472 48.4999 39.1547 48.4999 38.792V12.816ZM72.922 46H63.81V2.004H72.922V46ZM88.265 8.668C87.313 9.62 86.157 10.096 84.797 10.096C83.437 10.096 82.2584 9.62 81.261 8.668C80.2637 7.67066 79.765 6.492 79.765 5.132C79.765 3.72667 80.2637 2.548 81.261 1.596C82.2584 0.598665 83.437 0.0999992 84.797 0.0999992C86.157 0.0999992 87.313 0.598665 88.265 1.596C89.2624 2.548 89.761 3.72667 89.761 5.132C89.761 6.53733 89.2624 7.716 88.265 8.668ZM80.241 46V12.816H89.353V46H80.241ZM120.299 25.872H111.187V20.024C111.187 19.6613 111.051 19.344 110.779 19.072C110.553 18.8 110.258 18.664 109.895 18.664H106.155C105.793 18.664 105.475 18.8 105.203 19.072C104.977 19.344 104.863 19.6613 104.863 20.024V38.792C104.863 39.1547 104.977 39.472 105.203 39.744C105.475 40.016 105.793 40.152 106.155 40.152H109.895C110.258 40.152 110.553 40.016 110.779 39.744C111.051 39.472 111.187 39.1547 111.187 38.792V32.944H120.299V37.704C120.299 43.688 117.489 46.68 111.867 46.68H104.183C98.5621 46.68 95.7514 43.688 95.7514 37.704V21.112C95.7514 15.128 98.5621 12.136 104.183 12.136H111.867C117.489 12.136 120.299 15.128 120.299 21.112V25.872ZM142.215 12.136C147.836 12.136 150.647 15.128 150.647 21.112V31.856H135.211V38.792C135.211 39.1547 135.324 39.472 135.551 39.744C135.823 40.016 136.14 40.152 136.503 40.152H140.243C140.606 40.152 140.9 40.016 141.127 39.744C141.399 39.472 141.535 39.1547 141.535 38.792V35.12H150.647V37.704C150.647 43.688 147.836 46.68 142.215 46.68H134.531C128.91 46.68 126.099 43.688 126.099 37.704V21.112C126.099 15.128 128.91 12.136 134.531 12.136H142.215ZM135.211 25.872H141.535V19.752C141.535 19.3893 141.399 19.072 141.127 18.8C140.9 18.528 140.606 18.392 140.243 18.392H136.503C136.14 18.392 135.823 18.528 135.551 18.8C135.324 19.072 135.211 19.3893 135.211 19.752V25.872Z" fill="#FE9800"/>
</svg>
